<svg width="21" height="12" viewBox="0 0 21 12" fill="none" xmlns="http://www.w3.org/2000/svg">
<path d="M0.462242 0.458879C0.758305 0.165059 1.1598 0 1.57843 0C1.99707 0 2.39856 0.165059 2.69462 0.458879L10.5095 8.21692L18.3244 0.458879C18.6222 0.173386 19.021 0.0154129 19.435 0.0189838C19.8489 0.0225548 20.2449 0.187384 20.5376 0.47797C20.8303 0.768557 20.9963 1.16165 20.9999 1.57259C21.0035 1.98352 20.8444 2.37942 20.5568 2.67501L11.6257 11.5411C11.3297 11.8349 10.9282 12 10.5095 12C10.0909 12 9.68941 11.8349 9.39334 11.5411L0.462242 2.67501C0.166269 2.3811 0 1.98253 0 1.56695C0 1.15136 0.166269 0.752787 0.462242 0.458879Z" fill="white"/>
</svg>
